<?xml version="1.0" encoding="utf-8"?>
<!-- Generator: Adobe Illustrator 26.3.1, SVG Export Plug-In . SVG Version: 6.00 Build 0)  -->
<!DOCTYPE svg PUBLIC "-//W3C//DTD SVG 1.1//EN" "http://www.w3.org/Graphics/SVG/1.1/DTD/svg11.dtd" [
	<!ENTITY ns_extend "http://ns.adobe.com/Extensibility/1.0/">
	<!ENTITY ns_ai "http://ns.adobe.com/AdobeIllustrator/10.0/">
	<!ENTITY ns_graphs "http://ns.adobe.com/Graphs/1.0/">
	<!ENTITY ns_vars "http://ns.adobe.com/Variables/1.0/">
	<!ENTITY ns_imrep "http://ns.adobe.com/ImageReplacement/1.0/">
	<!ENTITY ns_sfw "http://ns.adobe.com/SaveForWeb/1.0/">
	<!ENTITY ns_custom "http://ns.adobe.com/GenericCustomNamespace/1.0/">
	<!ENTITY ns_adobe_xpath "http://ns.adobe.com/XPath/1.0/">
]>
<svg version="1.1" xmlns:x="&ns_extend;" xmlns:i="&ns_ai;" xmlns:graph="&ns_graphs;"
	 xmlns="http://www.w3.org/2000/svg" xmlns:xlink="http://www.w3.org/1999/xlink" x="0px" y="0px" width="172.9134px"
	 height="82.2047px" viewBox="0 0 172.9134 82.2047" enable-background="new 0 0 172.9134 82.2047" xml:space="preserve">
<metadata>
	<sfw  xmlns="&ns_sfw;">
		<slices></slices>
		<sliceSourceBounds  bottomLeftOrigin="true" height="1997.6707" width="1707.1272" x="1951.2065" y="-265.8"></sliceSourceBounds>
		<optimizationSettings>
			<targetSettings  fileFormat="PNG24Format" targetSettingsID="0">
				<PNG24Format  filtered="false" interlaced="false" matteColor="#FFFFFF" noMatteColor="false" transparency="true">
					</PNG24Format>
			</targetSettings>
		</optimizationSettings>
	</sfw>
</metadata>
<g id="Purple_Background" display="none">
</g>
<g id="Outline">
</g>
<g id="Logo_artwork">
	<path fill="#FFFFFF" d="M161.2284,25.4237c-0.9685,0-1.9182,0.1416-2.8369,0.422c0.8364-0.9018,1.4852-2.0036,1.9093-3.2556
		c0.8888-2.6229,0.5139-5.6872-1.003-8.1968c-0.6686-1.106-1.577-1.5292-2.2638-1.6855c-0.4612-0.749-0.9585-1.4109-1.399-1.9844
		c-3.1904-4.157-7.1338-5.4664-8.391-5.6211l-0.1634-0.0189l-0.2554-0.0063c-0.581,0-1.1424,0.1452-1.6395,0.4179
		c-0.0496-0.0412-0.099-0.082-0.1485-0.1223c-1.7635-1.4402-3.7786-2.5113-6.3421-3.3707
		c-1.4139-0.4739-2.8147-0.7645-4.1638-0.8638c-1.2831-0.0945-7.501-0.1371-7.5579-0.1371H42.1249
		c-2.8867,0-5.2351,2.3505-5.2351,5.2397c0,0.8268,0.1937,1.6276,0.5549,2.3464H22.4311c-1.4318,0-2.7693,0.5689-3.7656,1.6018
		c-0.9972,1.0336-1.5178,2.3937-1.4661,3.8301c0.0902,2.5082,2.0461,4.5945,4.5141,4.9794c-0.3813,0.7353-0.5861,1.5588-0.5861,2.41
		c0,0.8293,0.1946,1.6319,0.5577,2.352H6.4617c-1.4321,0-2.7695,0.569-3.766,1.6021c-0.997,1.0336-1.5176,2.3936-1.4656,3.8298
		c0.1,2.7808,2.4934,5.0431,5.3351,5.0431h3.2934c-0.3745,0.7457-0.5684,1.5795-0.5537,2.4413
		c0.048,2.8369,2.4484,5.1448,5.3507,5.1448h15.8562c-0.3512,0.6972-0.5451,1.4717-0.5577,2.2732l-0.0883,0.5274
		c-0.2794,1.6699-1.711,2.882-3.4041,2.882h-5.8075c-1.0461,0-1.9515,0.5976-2.3624,1.5599c-0.4111,0.962-0.217,2.0292,0.5064,2.785
		l1.8746,1.9593l-1.8413,8.0422l-3.691,15.833c-0.2081,0.893-0.0005,1.8172,0.5696,2.5354c0.57,0.7182,1.423,1.1302,2.34,1.1302
		h99.0816c2.4507,0,4.5511-1.6671,5.1077-4.0541l0.4195-1.7993l0.0149,0.0006l1.6159-7.155
		c0.0795-0.3402,0.4151-0.3661,0.5367-0.3698c3.8443,0.1411,6.8084,1.7258,9.9469,3.4036
		c3.1023,1.6585,6.3102,3.3734,10.4843,3.6969c8.1631,0.6344,9.3181-4.0171,9.4661-4.9558c0.272-1.7226-0.1086-3.2399-0.3864-4.3477
		c-0.0764-0.3054-0.1489-0.5938-0.1967-0.8421v-0.0001c-0.3363-1.746-0.2342-3.1698,0.3416-4.7605
		c0.8933-2.4668,2.1757-4.8765,3.416-7.2068c0.3864-0.7259,0.7858-1.4765,1.1673-2.2172c0.2438-0.4729,0.646-0.8442,1.1326-1.0457
		c0.2769-0.1145,6.8098-2.8508,9.3475-6.7255l0.0207-0.0331c1.2731-2.1296,2.0033-4.5056,2.0033-6.5189
		C171.5696,30.356,166.9306,25.4237,161.2284,25.4237z"/>
	<g>
		<path fill="#D22730" d="M37.606,78.6537l0.8429-3.682c0.0373-0.2192-0.0305-0.4404-0.1799-0.5972l-0.0506-0.0525h1.9017
			l-0.9915,4.3317H37.606z"/>
		<path fill="#D22730" d="M80.1077,74.2977h-2.2788l0.0506,0.0528c0.0263,0.0274,0.0492,0.0571,0.0695,0.087
			c0.0147,0.0206,0.0282,0.0415,0.0435,0.072c0.1023,0.217,0.0178,0.4893-0.2579,0.8328l-2.6591,3.3119h1.6026l0.1604-0.2077
			h-0.0002l0.0315-0.0405l0.4274-0.5535h0.0042l0.5695-0.7312c0,0-0.1655,0.3295-0.2362,0.7312h2.0886l0.2446,0.8017h1.5791
			L80.1077,74.2977z M77.9006,77.0483l1.1644-1.5514l0.4494,1.5514H77.9006z"/>
		<path fill="#D22730" d="M67.0492,74.2977h-2.2788l0.0506,0.0528c0.0263,0.0274,0.0492,0.0571,0.0695,0.087
			c0.0147,0.0206,0.0282,0.0415,0.0435,0.072c0.1023,0.217,0.0178,0.4893-0.2579,0.8328l-2.6591,3.3119h1.6026l0.1604-0.2077
			h-0.0002l0.0315-0.0405l0.4274-0.5535h0.0042l0.5695-0.7312c0,0-0.1655,0.3295-0.2362,0.7312h2.0886l0.2446,0.8017h1.5791
			L67.0492,74.2977z M64.8421,77.0483l1.1644-1.5514l0.4494,1.5514H64.8421z"/>
		<path fill="#D22730" d="M99.046,74.3296l-0.6489,0.615l0,0l-0.0644,0.0611l-1.1793,1.1176l0,0l-0.4725,0.4477
			c0,0,0.2073-0.2724,0.3675-0.6251l-0.0004-0.0057l-0.9272-1.6106l-1.9633,0.0008l0.0506,0.0528
			c0.1633,0.1703,0.2277,0.4093,0.1729,0.6387l-0.8574,3.6323h1.4817l0.6336-2.6904l1.1698,1.826l1.5108-1.3399
			c0.4174-0.3689,0.6776-1.0019,0.6776-1.0019l-0.1176,0.5052h0.0001l-0.6288,2.701h1.5077l1.0249-4.3246H99.046z"/>
		<path fill="#D22730" d="M60.7232,74.3296l-0.6489,0.615l0,0l-0.0644,0.0611l-1.1793,1.1176l0,0l-0.4725,0.4477
			c0,0,0.2073-0.2724,0.3675-0.6251l-0.0004-0.0057l-0.9272-1.6106l-1.9633,0.0008l0.0506,0.0528
			c0.1633,0.1703,0.2277,0.4093,0.1729,0.6387l-0.8574,3.6323h1.4817l0.6336-2.6904l1.1698,1.826l1.5108-1.3399
			c0.4174-0.3689,0.6776-1.0019,0.6776-1.0019l-0.1176,0.5052h0.0001l-0.6287,2.701h1.5076l1.0249-4.3246H60.7232z"/>
		<path fill="#D22730" d="M114.2629,74.302l-0.6283,0.9263l1.8113-0.0002l-0.0001,0.0002h0.8473
			c-0.0099,0.0017-0.4979,0.083-0.9206,0.3071l-0.7377,3.0912h1.8952l-0.0506-0.0528c-0.1633-0.1703-0.2277-0.4093-0.1729-0.6387
			l0.6376-2.7068h1.8048l0.2147-0.9263H114.2629z"/>
		<path fill="#D22730" d="M111.6543,74.322l-0.6256,2.6298l-0.0005-0.0007l-0.118,0.499c0,0,0.0148-0.4132-0.1273-0.8612
			l-0.0787-0.1168l-1.4547-2.1502h-1.8365l0.0503,0.0525c0.163,0.1706,0.2277,0.4093,0.1729,0.6387l-0.8588,3.6334h1.4901
			l0.2977-1.2634h-0.0007l0.2103-0.8906l0.2391-1.0205c0,0-0.0052,0.3484,0.099,0.7467l1.654,2.4278h1.3531l1.0246-4.3246H111.6543z
			"/>
		<path fill="#D22730" d="M73.9767,74.322l-0.6256,2.6298l-0.0005-0.0007l-0.118,0.499c0,0,0.0148-0.4132-0.1273-0.8612
			l-0.0787-0.1168l-1.4547-2.1502h-1.8365l0.0503,0.0525c0.163,0.1706,0.2277,0.4093,0.1729,0.6387l-0.8588,3.6334H70.59
			l0.2977-1.2634H70.887l0.2103-0.8906l0.2391-1.0205c0,0-0.0051,0.3484,0.099,0.7467l1.6541,2.4278h1.3531l1.0246-4.3246H73.9767z"
			/>
		<path fill="#D22730" d="M45.2461,74.322l-0.6256,2.6298L44.62,76.9511l-0.118,0.499c0,0,0.0148-0.4132-0.1273-0.8612
			l-0.0787-0.1168l-1.4547-2.1502h-1.8365l0.0503,0.0525c0.163,0.1706,0.2277,0.4093,0.1729,0.6387l-0.8588,3.6334h1.4901
			l0.2977-1.2634h-0.0007l0.2103-0.8906l0.2391-1.0205c0,0-0.0052,0.3484,0.099,0.7467l1.654,2.4278h1.3531l1.0246-4.3246H45.2461z"
			/>
		<path fill="#D22730" d="M29.5708,74.322l-0.6256,2.6298l-0.0005-0.0007l-0.118,0.499c0,0,0.0148-0.4132-0.1273-0.8612
			l-0.0787-0.1168L27.166,74.322h-1.8365l0.0503,0.0525c0.163,0.1706,0.2277,0.4093,0.1729,0.6387l-0.8588,3.6334h1.4901
			l0.2977-1.2634h-0.0007l0.2103-0.8906l0.2391-1.0205c0,0-0.0052,0.3484,0.099,0.7467l1.654,2.4278h1.3531l1.0246-4.3246H29.5708z"
			/>
		<path fill="#D22730" d="M84.8096,76.7229l-0.0497,0.2192h1.2317c0,0-0.0003,0.0008-0.0004,0.0013h0.1187
			c-0.0731,0.1929-0.2201,0.4714-0.5103,0.7289l-0.0002,0.0008c-0.0003,0.0001-0.0007,0.0001-0.0011,0.0004
			c-0.321,0.2843-0.816,0.5427-1.5798,0.6303c0,0,0.3366-0.0943,0.6499-0.482c-0.0191-0.0015-0.0392-0.0018-0.0578-0.0038
			c-0.0791-0.0084-0.1572-0.0192-0.2332-0.0356c-0.0331-0.0067-0.0654-0.0136-0.0955-0.021
			c-0.159-0.042-0.3064-0.1001-0.4359-0.1769c-0.1424-0.085-0.2613-0.1932-0.3534-0.3215
			c-0.0938-0.1305-0.1523-0.2839-0.1737-0.4559c-0.0268-0.2189,0.0014-0.4305,0.0836-0.6294
			c0.0819-0.1975,0.211-0.3723,0.3836-0.5198c0.1706-0.1455,0.3831-0.2619,0.6308-0.346c0.2463-0.0839,0.5291-0.1266,0.8407-0.1266
			c0.3345,0,0.6364,0.0458,0.8983,0.1359c0.2379,0.0819,0.4531,0.1848,0.6413,0.3062l0.891-0.7068
			c-0.0955-0.072-0.2085-0.1432-0.3379-0.2127c-0.1672-0.0896-0.3596-0.1695-0.5712-0.2379
			c-0.2133-0.0692-0.4534-0.1254-0.7133-0.1669c-0.261-0.0421-0.5412-0.0633-0.8328-0.0633c-0.5613,0-1.072,0.072-1.5175,0.2141
			c-0.4435,0.1418-0.8218,0.3356-1.1246,0.576c-0.3006,0.2387-0.5246,0.5167-0.6658,0.8263
			c-0.1401,0.3068-0.1901,0.6359-0.148,0.9783c0.0407,0.3294,0.1559,0.6155,0.3429,0.8503
			c0.1896,0.2381,0.4291,0.4381,0.7124,0.5949c0.2839,0.1573,0.6045,0.2754,0.9528,0.3506
			c0.3494,0.0754,0.7059,0.1136,1.0596,0.1136c0.439,0,0.8438-0.0424,1.2031-0.1263c0.3452-0.0799,0.6559-0.1805,0.924-0.2992
			l0.5446-2.1229h-2.3495L84.8096,76.7229z"/>
		<path fill="#D22730" d="M34.3903,76.7229l-0.0497,0.2192h1.2317c0,0-0.0003,0.0008-0.0004,0.0013h0.1187
			c-0.0731,0.1929-0.2201,0.4714-0.5103,0.7289L35.18,77.6731c-0.0003,0.0001-0.0007,0.0001-0.0011,0.0004
			c-0.321,0.2843-0.816,0.5427-1.5798,0.6303c0,0,0.3366-0.0943,0.6499-0.482c-0.0191-0.0015-0.0392-0.0018-0.0578-0.0038
			c-0.0791-0.0084-0.1572-0.0192-0.2332-0.0356c-0.0331-0.0067-0.0654-0.0136-0.0955-0.021
			c-0.159-0.042-0.3064-0.1001-0.4359-0.1769c-0.1424-0.085-0.2613-0.1932-0.3534-0.3215
			c-0.0938-0.1305-0.1523-0.2839-0.1737-0.4559c-0.0268-0.2189,0.0014-0.4305,0.0836-0.6294
			c0.0819-0.1975,0.211-0.3723,0.3836-0.5198c0.1706-0.1455,0.3831-0.2619,0.6308-0.346c0.2463-0.0839,0.5291-0.1266,0.8407-0.1266
			c0.3345,0,0.6364,0.0458,0.8983,0.1359c0.2379,0.0819,0.4531,0.1848,0.6413,0.3062l0.891-0.7068
			c-0.0955-0.072-0.2085-0.1432-0.3379-0.2127c-0.1672-0.0896-0.3596-0.1695-0.5712-0.2379
			c-0.2133-0.0692-0.4534-0.1254-0.7133-0.1669c-0.261-0.0421-0.5412-0.0633-0.8328-0.0633c-0.5613,0-1.072,0.072-1.5175,0.2141
			c-0.4435,0.1418-0.8218,0.3356-1.1246,0.576c-0.3006,0.2387-0.5246,0.5167-0.6658,0.8263
			c-0.1401,0.3068-0.1901,0.6359-0.148,0.9783c0.0407,0.3294,0.1559,0.6155,0.3429,0.8503
			c0.1896,0.2381,0.4291,0.4381,0.7124,0.5949c0.2839,0.1573,0.6045,0.2754,0.9528,0.3506
			c0.3494,0.0754,0.7059,0.1136,1.0596,0.1136c0.439,0,0.8438-0.0424,1.2031-0.1263c0.3452-0.0799,0.6559-0.1805,0.924-0.2992
			l0.5446-2.1229h-2.3495L34.3903,76.7229z"/>
		<path fill="#D22730" d="M101.58,74.322l0.0503,0.0525c0.1633,0.1706,0.2277,0.4096,0.1726,0.6387l-0.8602,3.6334h4.6964
			l0.2093-0.8941h-3.215l0.162-0.6453c-0.3379-0.1653-0.6374-0.2295-0.6374-0.2295l0.6951-0.0002l0.0001-0.0005l2.6542-0.0002
			l0.1929-0.8172h-2.6656l0.1497-0.5883l0.0055-0.0225c-0.3383-0.1657-0.6384-0.23-0.6384-0.23l0.6973-0.0002l0.0004-0.0018
			l2.8693-0.0005l0.4432-0.6531l0.0585-0.2412H101.58z"/>
		<path fill="#D22730" d="M88.4708,74.322l0.0503,0.0525c0.1633,0.1706,0.2277,0.4096,0.1726,0.6387l-0.8602,3.6334h4.6964
			l0.2093-0.8941h-3.215l0.162-0.6453c-0.3379-0.1653-0.6374-0.2295-0.6374-0.2295l0.6951-0.0002l0.0001-0.0005l2.6542-0.0002
			l0.1929-0.8172h-2.6656l0.1497-0.5883l0.0055-0.0225c-0.3383-0.1657-0.6384-0.23-0.6384-0.23l0.6973-0.0002l0.0004-0.0018
			l2.8693-0.0005l0.4432-0.6531l0.0585-0.2412H88.4708z"/>
		<path fill="#D22730" d="M47.5541,74.322l0.0503,0.0525c0.1633,0.1706,0.2277,0.4096,0.1726,0.6387l-0.8602,3.6334h4.6964
			l0.2093-0.8941h-3.215l0.162-0.6453c-0.3379-0.1653-0.6374-0.2295-0.6374-0.2295l0.6951-0.0002l0.0001-0.0005l2.6542-0.0002
			l0.1929-0.8172H49.009l0.1496-0.5883l0.0055-0.0225c-0.3383-0.1657-0.6384-0.23-0.6384-0.23l0.6973-0.0002l0.0004-0.0018
			l2.8693-0.0005l0.4432-0.6531l0.0585-0.2412H47.5541z"/>
		<path fill="#D22730" d="M19.4526,74.322l0.0503,0.0525c0.1633,0.1706,0.2277,0.4096,0.1726,0.6387l-0.8602,3.6334h4.6964
			l0.2093-0.8941h-3.215l0.162-0.6453c-0.3379-0.1653-0.6374-0.2295-0.6374-0.2295l0.6951-0.0002l0.0001-0.0005l2.6542-0.0002
			l0.1929-0.8172h-2.6656l0.1496-0.5883l0.0055-0.0225c-0.3383-0.1657-0.6384-0.23-0.6384-0.23l0.6973-0.0002l0.0004-0.0018
			l2.8692-0.0005l0.4432-0.6531l0.0585-0.2412H19.4526z"/>
	</g>
	<g>
		<g>
			<g>
				<path fill="#3F1951" d="M86.6212,63.8497c0,0,0.1149-1.7452-0.2882-3.4552l-7.5715-9.699H66.0683l0.8391,0.8764
					c0.5975,0.6238,0.8675,1.4854,0.7438,2.3313l-3.9795,17.382h7.7432l3.3785-14.7579c-0.0127,0.2411-0.0708,1.6596,0.2276,3.1297
					l9.0777,11.6281h8.5734l4.7143-20.5897h-7.7432L86.6212,63.8497z"/>
				<path fill="#3F1951" d="M39.1514,63.8912c-0.4679,1.0773-1.5363,1.8011-2.7454,1.8011h-6.2285
					c-0.8993,0.9582-1.4829,2.002-1.5952,2.2097l3.9392-17.2066H22.4614l0.8387,0.8764c0.5976,0.6238,0.8675,1.4854,0.7442,2.3313
					l-3.9799,17.382h24.4421l2.0046-8.7552h-6.9202L39.1514,63.8912z"/>
				<path fill="#3F1951" d="M52.1412,50.6954l0.8391,0.8764c0.5976,0.6243,0.8675,1.4858,0.7438,2.3313l-3.9799,17.382h7.7432
					l4.7143-20.5897H52.1412z"/>
				<path fill="#3F1951" d="M109.4989,62.5301l14.2213-11.8345h-10.736l-13.97,11.8345h0.0004c1.8168,0,3.5319,0.837,4.6499,2.269
					l5.0635,6.4862h10.736l-7.3762-9.449C110.7394,62.0847,109.4989,62.5301,109.4989,62.5301"/>
			</g>
			<g>
				<path fill="#D22730" d="M40.2307,6.0866v0.0045c0,1.0462,0.8481,1.8943,1.8943,1.8943h12.8716
					c1.0462,0,1.8943,0.8481,1.8943,1.8943v0.0045c0,1.0462-0.8481,1.8943-1.8943,1.8943H22.4311
					c-1.0462,0-1.8943,0.8481-1.8943,1.8943v0.0045c0,1.0462,0.8481,1.8943,1.8943,1.8943h22.5971
					c1.0462,0,1.8943,0.8481,1.8943,1.8943c0,1.0462-0.8481,1.8943-1.8943,1.8943H26.3628c-1.0462,0-1.8943,0.8481-1.8943,1.8943
					v0.0045c0,1.0462,0.8481,1.8943,1.8943,1.8943h24.5276c1.0462,0,1.8943,0.8481,1.8943,1.8943v0.0102
					c0,1.0462-0.8481,1.8943-1.8943,1.8943H6.4616c-1.0462,0-1.8943,0.8481-1.8943,1.8943v0.0045
					c0,1.0462,0.8481,1.8943,1.8943,1.8943h24.7537c1.0462,0,1.8943,0.8481,1.8943,1.8943v0.0045
					c0,1.0462-0.8481,1.8943-1.8943,1.8943H14.539c-1.0462,0-1.8943,0.8481-1.8943,1.8943v0.0045
					c0,1.0462,0.8481,1.8943,1.8943,1.8943h26.5259c1.0462,0,1.8943,0.8481,1.8943,1.8943v0.0102
					c0,1.0462-0.8481,1.8943-1.8943,1.8943h-5.8763c-1.0462,0-1.8943,0.8481-1.8943,1.8943v0.0045
					c0,1.0462,0.8481,1.8943,1.8943,1.8943l53.6994-0.0046c-1.1507,0-2.0834-0.9328-2.0834-2.0834v-0.005
					c0-1.1507,0.9328-2.0834,2.0834-2.0834h1.4947c1.1507,0,2.0834-0.9328,2.0834-2.0834v-0.0112
					c0-1.1507-0.9328-2.0834-2.0834-2.0834H74.7095c-1.1507,0-2.0834-0.9328-2.0834-2.0834v-0.005
					c0-1.1507-0.9328-2.0834-2.0834-2.0834h-10.537c-1.1506,0-2.0834-0.9328-2.0834-2.0834v-0.005
					c0-1.1507,0.9328-2.0834,2.0834-2.0834h1.026c1.1507,0,2.0834-0.9328,2.0834-2.0834v-0.005
					c0-1.1507,0.9328-2.0834,2.0834-2.0834h15.8741c1.1568,0,2.0946-0.9378,2.0946-2.0946c0-1.1507,0.9328-2.0834,2.0834-2.0834
					h6.975c1.1965,0,2.1575-1.0087,2.0789-2.2221c-0.0717-1.1074-1.0406-1.9448-2.1503-1.9448H74.7095
					c-1.1507,0-2.0834-0.9328-2.0834-2.0834v-0.005c0-1.1507,0.9328-2.0834,2.0834-2.0834h8.4265
					c1.1506,0,2.0834-0.9328,2.0834-2.0834v-0.0049c0-1.1507,0.9328-2.0834,2.0834-2.0834h8.0561
					c1.1506,0,2.0834-0.9328,2.0834-2.0834v-0.005c0-1.1507,0.9328-2.0834,2.0834-2.0834H42.1249
					C41.0788,4.1924,40.2307,5.0405,40.2307,6.0866z M53.0206,31.2359c0,1.1507-0.9328,2.0835-2.0835,2.0835h-0.0049
					c-1.1507,0-2.0835-0.9328-2.0835-2.0835v-0.0049c0-1.1507,0.9328-2.0835,2.0835-2.0835h0.0049
					c1.1507,0,2.0835,0.9328,2.0835,2.0835V31.2359z"/>
				<path fill="#D22730" d="M109.5742,16.6986h-0.0049c-1.1507,0-2.0835,0.9328-2.0835,2.0835v0.0049
					c0,1.1507,0.9328,2.0835,2.0835,2.0835h0.0049c1.1507,0,2.0835-0.9328,2.0835-2.0835v-0.0049
					C111.6577,17.6314,110.7249,16.6986,109.5742,16.6986z"/>
				<path fill="#D22730" d="M101.8497,37.5683h-0.0049c-1.1507,0-2.0835,0.9328-2.0835,2.0835v0.0049
					c0,1.1507,0.9328,2.0835,2.0835,2.0835h0.0049c1.1507,0,2.0835-0.9328,2.0835-2.0835v-0.0049
					C103.9332,38.5011,103.0004,37.5683,101.8497,37.5683z"/>
			</g>
			<g>
				<path fill="#3F1951" d="M142.8694,24.8564c-4.0561,0-7.3441,3.5715-7.3441,7.9772c0,4.4057,3.2881,7.9772,7.3441,7.9772
					c4.056,0,7.3441-3.5715,7.3441-7.9772C150.2135,28.4279,146.9254,24.8564,142.8694,24.8564z M142.9654,39.2664
					c-3.1209,0-5.6509-2.7907-5.6509-6.2333c0-2.5781,1.4197-4.7891,3.4432-5.7376c0.042-0.0197,0.084,0.0282,0.0595,0.0677
					c-0.2119,0.3402-0.414,0.7428-0.5621,1.208c-0.0262,0.0824,0.0271,0.1685,0.1116,0.1868
					c2.3232,0.503,4.0744,2.7279,4.0744,5.3981c0,1.4882-0.5445,2.8374-1.4285,3.8279c-0.0595,0.0667,0.2277,0.1897,0.6387,0.1607
					c3.637-0.2571,4.589-4.0717,4.589-4.0717s0.3008,0.3046,0.0445,1.066C147.5018,37.545,145.4162,39.2664,142.9654,39.2664z"/>
				<path fill="#3F1951" d="M161.2287,28.6149c-3.8661,0-7.0001,3.4268-7.0001,7.6541s3.134,7.6541,7.0001,7.6541
					s7.0001-3.4268,7.0001-7.6541S165.0947,28.6149,161.2287,28.6149z M161.3202,42.4412c-2.9747,0-5.3862-2.6777-5.3862-5.9808
					c0-2.4737,1.3532-4.5951,3.2819-5.5052c0.0401-0.0189,0.0801,0.0271,0.0567,0.0649c-0.202,0.3265-0.3946,0.7127-0.5358,1.1591
					c-0.025,0.079,0.0258,0.1616,0.1064,0.1792c2.2144,0.4826,3.8835,2.6174,3.8835,5.1794c0,1.4279-0.519,2.7225-1.3615,3.6729
					c-0.0568,0.064,0.217,0.1821,0.6088,0.1542c3.4666-0.2467,4.3741-3.9068,4.3741-3.9068s0.2867,0.2922,0.0425,1.0228
					C165.6441,40.7896,163.6561,42.4412,161.3202,42.4412z"/>
				<path fill="#3F1951" d="M154.5821,52.0002c-0.4498-0.0717-0.9058,0.2237-1.3682,0.2169
					c-0.4609-0.0067-0.8991-0.171-1.2794-0.4258c-0.4593-0.3078-0.9215-0.6119-1.3901-0.9053
					c-1.4366-0.8995-2.9765-1.1014-4.6109-0.6786c-0.6633,0.1716-1.3277,0.333-2.0103,0.427
					c-1.2018,0.1655-2.3068,0.0025-3.446-0.3863c-0.1427-0.0487-0.2888-0.0973-0.4396-0.098
					c-0.7684-0.0037-1.1026,0.8425-1.2779,1.6527c-1.0269,4.7438-0.4901,9.3718,1.2262,13.3003
					c0.1612,0.369,1.2896,2.3796,1.8638,1.9948c-0.0145-0.0766-0.0495-0.1278-0.0867-0.1958
					c-0.2391-0.4377-0.5133-0.8618-0.6683-1.3394c-0.0263-0.0809-0.0469-0.1767,0.0033-0.2453
					c0.0488-0.0667,0.1462-0.0777,0.2263-0.0572c0.4844,0.1236,0.9374,0.3392,1.4343,0.4408
					c0.5136,0.1051,1.0356,0.164,1.5579,0.2057c1.3699,0.1093,2.7441,0.0823,4.1131-0.0613
					c0.4919-0.0516,0.9043,0.1084,1.235,0.4601c0.112,0.1191,0.2118,0.2854,0.2375,0.4431
					c0.0838,0.5136-0.0378,0.9868-0.3882,1.3845c-0.3448,0.3915-0.7299,0.4519-1.1722,0.1851
					c-0.1301-0.0785-0.2447-0.1825-0.3726-0.2651c-0.3652-0.2359-0.7479-0.2603-1.1417-0.0765
					c-0.1207,0.0564-0.2369,0.1226-0.3559,0.1827c-0.3026,0.1527-0.6055,0.2055-0.9311,0.0517
					c-0.6145-0.2903-1.3399-0.1366-1.9485,0.0942c-0.1192,0.0452-0.2499,0.1106-0.2847,0.2333
					c-0.0017,0.0059-0.0032,0.0119-0.0045,0.0178c-0.111,0.5077,1.1809,0.9926,1.5262,1.1294
					c1.0594,0.4196,2.222,0.5577,3.3457,0.3525c1.7695-0.3232,3.8861-1.5334,3.4867-3.6186
					c-0.1182-0.6169-0.2659-1.2286-0.4169-1.8386c-0.2651-1.0709-0.3152-2.1456-0.0958-3.2295
					c0.1782-0.8805,0.4739-1.726,0.773-2.5699c0.7631-2.1532,1.7908-4.1901,2.8835-6.1916c0.0628-0.1151,0.1276-0.2472,0.087-0.3719
					C154.8512,52.0916,154.7135,52.0212,154.5821,52.0002z M146.8296,64.2985c-0.7729,0.2736-1.6082,0.3147-2.4279,0.2968
					c-0.6531-0.0143-1.3138-0.066-1.932-0.2771c-0.9809-0.3349-1.6709-1.1206-2.0742-2.0566
					c-0.4818-1.118-0.7947-2.3384-0.7618-3.563c0.0133-0.4946,0.0858-1.2789,0.5583-1.5542c0.2252-0.1312,0.5054-0.1239,0.761-0.073
					c0.962,0.1916,1.5806,0.9657,2.1893,1.6711c0.6467,0.7494,1.2187,1.567,1.6414,2.4642c0.0214,0.0454,0.0816,0.1821,0.1529,0.198
					c0.0218,0.0049,0.0447-0.0016,0.0678-0.0254c0.037-0.0382,0.0384-0.0975,0.0361-0.1506
					c-0.0323-0.7223-0.2316-1.4682-0.37-2.1764c-0.0424-0.2168-0.0011-0.4176,0.1327-0.595
					c0.4076-0.5405,1.4808-1.1131,2.3483-0.7999c0.842,0.3041,1.2,1.0725,1.4007,1.9024c0.1719,0.7108,0.3379,1.4922,0.3201,2.2212
					C148.8428,62.992,147.9216,63.912,146.8296,64.2985z M151.65,54.0113c-0.3951,1.1955-1.6002,1.4657-2.7259,1.5451
					c-0.3286,0.0232-0.6573,0.0351-0.9857,0.036c-1.9396,0.0056-3.8669-0.3706-5.6832-1.0581
					c-0.338-0.1279-0.6779-0.2531-1.0069-0.4016c-0.224-0.1011-0.446-0.2203-0.6417-0.3676
					c-0.3635-0.2736-0.5202-0.6533-0.447-1.1069c0.0804-0.4987,0.3622-0.8743,0.7727-1.1526
					c0.2068-0.1402,0.4344-0.134,0.649-0.0081c0.1309,0.0768,0.2551,0.1668,0.375,0.2602c0.4542,0.354,0.9355,0.3908,1.4452,0.1343
					c0.119-0.0599,0.2373-0.1211,0.357-0.1796c0.2725-0.1333,0.5581-0.1602,0.8272-0.0202c0.5736,0.2984,1.1205,0.2561,1.692-0.0244
					c0.3931-0.1929,0.8165-0.1469,1.216,0.035c0.1558,0.0709,0.3048,0.1564,0.458,0.2329c0.592,0.2957,1.2125,0.4436,1.8782,0.369
					c0.1703-0.0191,0.3425-0.0202,0.5138-0.0304C151.1284,52.2276,151.9363,53.1452,151.65,54.0113z"/>
				<path fill="#3F1951" d="M164.6913,43.9441c-0.079-0.0107-0.1878,0.0554-0.2546,0.0901
					c-0.2534,0.1316-0.4986,0.2805-0.7582,0.398c-1.6281,0.7365-3.2947,0.8782-5.0101,0.3252
					c-1.2654-0.4079-2.3389-1.1214-3.2382-2.0799c-2.0558-2.1909-2.8502-4.7859-2.3186-7.7466
					c0.3868-2.1541,1.4612-3.9771,3.2452-5.2757c0.1271-0.0925,0.4018-0.2659,0.4018-0.2659s-0.1237-0.1426-0.6279,0.0463
					c-1.7931,0.6716-3.3252,1.7604-4.3616,3.3983c-0.1506,0.238-0.2953,0.4275-0.6013,0.4621
					c-0.2978,0.0337-0.3306,0.3175-0.3449,0.5575c-0.0573,0.9586-0.1884,1.9131-0.5421,2.812
					c-0.0945,0.2402-0.0905,0.4835-0.0195,0.7293c0.2275,0.7874,0.4517,1.5757,0.6809,2.3626
					c0.2616,0.8981,1.1609,1.1379,1.7863,1.7217c0.2115,0.1974,0.3971,0.4268,0.5278,0.6858
					c0.1344,0.2665,0.1834,0.561,0.2712,0.8438c0.3298,1.062,1.5382,1.4632,2.5093,1.684c0.3805,0.0865,0.6925,0.2052,0.7879,0.6227
					c0.107,0.4678-0.012,1.0184-0.0727,1.4886c-0.0629,0.4873-0.1471,0.9814-0.2387,1.458
					c-0.0374,0.1946,0.028,0.3065,0.1479,0.1905c0.3288-0.3189,0.6056-0.6785,0.9159-1.015
					c0.5408-0.5408,1.2151-0.813,1.9315-0.9392c1.9191-0.3381,3.4619-1.0006,4.2259-1.5014
					C164.6293,44.4103,164.7647,43.9541,164.6913,43.9441z"/>
				<path fill="#3F1951" d="M154.7291,21.4519c-0.2938,0.2877-0.6442,0.5185-0.9521,0.7941
					c-0.2031,0.1818-0.5662,0.4349-0.3523,0.7444c0.1726,0.2498,0.9197,1.3397,1.0053,1.4024
					c0.0455,0.0333,0.0908,0.0432,0.1354,0.0392c0.0831-0.0074,0.1637-0.063,0.2388-0.1049
					c1.1261-0.6296,1.9237-1.7522,2.3327-2.959c0.5984-1.7655,0.2642-3.8042-0.6982-5.3964
					c-0.1618-0.2678-0.232-0.1396-0.213-0.0427c0.2401,1.2267,0.0666,3.4034-0.7327,4.6007
					C155.2712,20.8622,155.0147,21.1723,154.7291,21.4519z"/>
				<path fill="#3F1951" d="M146.4508,45.7285c0.3725,0.2703,0.8444,0.3972,1.3024,0.3596
					c0.4691-0.0385,0.8639-0.2872,1.2819-0.4796c0.2098-0.0965,0.4322-0.1783,0.6631-0.2037
					c0.1816-0.02,0.4153,0.0633,0.5846-0.0191c0.0176-0.0086,0.0323-0.0194,0.0434-0.0331
					c0.0443-0.0548,0.0484-0.1736,0.0216-0.2351c-0.0329-0.0754-0.1115-0.1183-0.1847-0.1558
					c-0.6167-0.3155-1.2295-0.6278-1.9381-0.6024c-0.6664,0.0239-1.3269,0.2123-1.9037,0.5473
					C145.9074,45.1468,146.1522,45.5118,146.4508,45.7285z"/>
				<path fill="#3F1951" d="M152.5791,45.7605c0.1328,0.0091,0.2669-0.0023,0.3936-0.0423
					c0.1682-0.0531,0.3223-0.1592,0.4167-0.3081c0.3772-0.5957-0.725-0.5156-1.0016-0.3535
					c-0.0963,0.0564-0.1861,0.131-0.2361,0.2307s-0.0534,0.228,0.0128,0.3178c0.0644,0.0874,0.1778,0.1223,0.2849,0.1401
					C152.4922,45.7523,152.5356,45.7575,152.5791,45.7605z"/>
				<path fill="#3F1951" d="M143.2124,42.3537c-0.1139,0.0004-0.2281,0.0083-0.3431,0.0083c-4.8447,0-8.7722-4.266-8.7722-9.5284
					c0-3.8493,2.1017-7.1647,5.1264-8.668c0.0939-0.0467,0.0448-0.1899-0.0583-0.1706c-2.9834,0.5585-6.0154,1.2763-8.887,2.2719
					c-1.3574,0.4706-2.6814,0.9974-3.8675,1.8191c-1.0514,0.7284-1.9636,1.6458-2.6826,2.7038
					c-0.1935,0.2848-0.3732,0.5789-0.5391,0.8806c-0.0184,0.0334-0.0367,0.067-0.0531,0.1014
					c-0.1019,0.2129-0.3213,0.342-0.5573,0.3395c-0.6326-0.0068-4.6986,0.0019-7.889,0.01v-0.8133
					c0-1.1507-0.9328-2.0834-2.0834-2.0834h-4.8552c-1.1507,0-2.0834-0.9328-2.0834-2.0834v-0.0057
					c0-1.1504,0.9323-2.083,2.0827-2.0835l13.8513-0.0054c1.1507,0,2.0834-0.9328,2.0834-2.0834v-0.005
					c0-1.1507-0.9328-2.0834-2.0834-2.0834h-4.0023c-1.1965,0-2.1575-1.0087-2.0789-2.2221
					c0.0717-1.1074,1.0406-1.9448,2.1503-1.9448c0,0,9.8571,0,10.1342-0.0004c0.314-0.0005,0.6304-0.0138,0.9419-0.0523
					c0.4932-0.0609,0.9636-0.2427,1.3873-0.5024c0.6912-0.4237,1.4024-0.8,2.1708-1.0755c1.5276-0.5477,3.6005-0.7317,5.2634-0.8076
					c0.1025-0.0047,0.1449-0.1323,0.0646-0.1963c-0.4487-0.3579-1.6179-1.1545-3.6608-1.6693
					c-0.0663-0.0167-0.062-0.1111,0.0059-0.1198c0.5374-0.0686,1.5705-0.0179,2.2287,0.0577
					c2.2938,0.2632,4.5633,1.1244,6.6855,2.0402c0.5665,0.2445,1.119,0.5163,1.6646,0.8042
					c2.5099,1.3474,4.7494,3.0441,6.6346,5.1918c0.2391,0.2724,0.4804,0.543,0.7221,0.8132
					c0.3499,0.3911,0.3574,0.3617,0.971,0.0582c0.2334-0.1154,0.4628-0.2409,0.6753-0.3913
					c1.2285-0.8698,1.6958-2.0548,1.6864-3.474c-0.0048-0.7289-0.2118-1.4296-0.5237-2.0949
					c-0.4565-0.9739-1.083-1.829-1.7372-2.6814c-2.7139-3.536-5.9077-4.3096-6.1408-4.3382
					c-0.059-0.0072-0.0927,0.018-0.0604,0.0729c0.0176,0.03,0.04,0.0511,0.0718,0.083c0.1508,0.1513,1.5603,1.2428,2.5565,3.2395
					c0.3892,0.7801,0.3821,1.2754,0.3711,1.4249c-0.0379,0.512-0.533,0.4266-0.8635,0.2396
					c-1.2821-0.7255-2.3221-1.7945-3.2941-2.8825c-0.8402-0.9403-1.7233-1.8375-2.7016-2.6365
					c-1.5935-1.3014-3.3314-2.1339-5.2907-2.7905c-1.0877-0.3646-2.2059-0.6155-3.3475-0.6996
					c-1.0829-0.0797-7.0107-0.1286-7.3124-0.1281H99.5258c-1.1506,0-2.0834,0.9328-2.0834,2.0834v0.005
					c0,1.1506-0.9328,2.0834-2.0834,2.0834h-8.0561c-1.1506,0-2.0834,0.9328-2.0834,2.0834v0.0049
					c0,1.1506-0.9328,2.0834-2.0834,2.0834h-8.4265c-1.1507,0-2.0834,0.9328-2.0834,2.0834v0.005
					c0,1.1506,0.9328,2.0834,2.0834,2.0834h17.4448c1.1097,0,2.0786,0.8374,2.1503,1.9448
					c0.0786,1.2134-0.8824,2.2221-2.0789,2.2221h-6.975c-1.1507,0-2.0834,0.9328-2.0834,2.0834
					c0,1.1568-0.9378,2.0946-2.0946,2.0946H65.1984c-1.1506,0-2.0834,0.9328-2.0834,2.0834v0.005
					c0,1.1506-0.9328,2.0834-2.0834,2.0834h-1.026c-1.1506,0-2.0834,0.9328-2.0834,2.0834v0.005
					c0,1.1506,0.9328,2.0834,2.0834,2.0834h10.537c1.1506,0,2.0834,0.9328,2.0834,2.0834v0.005
					c0,1.1506,0.9328,2.0834,2.0834,2.0834h15.6732c1.1507,0,2.0834,0.9328,2.0834,2.0834v0.0112
					c0,1.1506-0.9328,2.0834-2.0834,2.0834h-1.4947c-1.1507,0-2.0834,0.9328-2.0834,2.0834v0.005
					c0,1.1506,0.9328,2.0834,2.0834,2.0834h28.9329c1.1506,0,2.0834-0.9328,2.0834-2.0834v-0.005
					c0-1.1507-0.9328-2.0834-2.0834-2.0834h-8.0284c-1.1507,0-2.0834-0.9328-2.0834-2.0834v-0.0112
					c0-1.1507,0.9328-2.0834,2.0834-2.0834h8.0284c0.0137,0,0.027-0.0018,0.0407-0.0021c1.8766,0.0073,3.8226,0.0172,4.3199,0.0172
					c0.5469,0,0.8162,0.302,1.1136,0.5749c0.7558,0.6936,1.8883,1.6665,2.7544,2.2281c3.1998,2.0749,6.4051,3.1244,9.9462,3.5095
					c2.5655,0.279,4.9631-0.2097,7.2513-1.3834C143.332,42.4689,143.3246,42.3533,143.2124,42.3537z M107.4859,18.7821
					c0-1.1507,0.9328-2.0835,2.0835-2.0835h0.0049c1.1507,0,2.0835,0.9328,2.0835,2.0835v0.0049
					c0,1.1507-0.9328,2.0835-2.0835,2.0835h-0.0049c-1.1507,0-2.0835-0.9328-2.0835-2.0835V18.7821z M103.9332,39.6566
					c0,1.1507-0.9328,2.0835-2.0835,2.0835h-0.0049c-1.1507,0-2.0835-0.9328-2.0835-2.0835v-0.0049
					c0-1.1507,0.9328-2.0835,2.0835-2.0835h0.0049c1.1507,0,2.0835,0.9328,2.0835,2.0835V39.6566z M131.4168,29.2647
					c0.3405,0,0.6165,0.3205,0.6165,0.7159c0,0.3954-0.276,0.7159-0.6165,0.7159c-0.3405,0-0.6165-0.3205-0.6165-0.7159
					C130.8003,29.5853,131.0763,29.2647,131.4168,29.2647z M126.677,33.073c-0.0243-0.3946,0.2316-0.7315,0.5714-0.7524
					c0.3398-0.0209,0.635,0.2821,0.6592,0.6768s-0.2316,0.7315-0.5714,0.7524C126.9963,33.7706,126.7012,33.4676,126.677,33.073z
					 M127.6429,36.7719c-0.3396,0.0249-0.6382-0.2747-0.6671-0.669c-0.0289-0.3943,0.223-0.7342,0.5626-0.759
					c0.3396-0.0249,0.6382,0.2747,0.6671,0.669S127.9824,36.7471,127.6429,36.7719z M128.6327,31.2335
					c0-0.3954,0.276-0.7159,0.6165-0.7159c0.3405,0,0.6165,0.3205,0.6165,0.7159c0,0.3954-0.276,0.7159-0.6165,0.7159
					C128.9087,31.9494,128.6327,31.6289,128.6327,31.2335z M128.8326,34.4306c-0.0242-0.3946,0.2316-0.7315,0.5714-0.7524
					c0.3398-0.0209,0.635,0.2821,0.6592,0.6768c0.0242,0.3946-0.2316,0.7315-0.5714,0.7524
					C129.152,35.1282,128.8569,34.8252,128.8326,34.4306z M130.0292,38.1839c-0.3396,0.0249-0.6382-0.2747-0.6671-0.669
					c-0.0289-0.3943,0.223-0.7342,0.5626-0.759c0.3396-0.0248,0.6382,0.2747,0.6671,0.669
					C130.6207,37.8192,130.3688,38.159,130.0292,38.1839z M130.7139,32.8344c-0.0242-0.3946,0.2316-0.7315,0.5714-0.7524
					c0.3398-0.0209,0.635,0.2821,0.6592,0.6768c0.0242,0.3946-0.2316,0.7315-0.5714,0.7524
					C131.0333,33.532,130.7382,33.229,130.7139,32.8344z M131.0127,35.7251c-0.0289-0.3943,0.223-0.7341,0.5626-0.759
					c0.3396-0.0248,0.6382,0.2747,0.6671,0.669c0.0289,0.3943-0.223,0.7341-0.5626,0.759
					C131.3403,36.419,131.0416,36.1194,131.0127,35.7251z M132.5685,39.3142c-0.338,0.0408-0.6505-0.2443-0.6978-0.6369
					c-0.0474-0.3925,0.1882-0.7438,0.5262-0.7846c0.338-0.0408,0.6505,0.2443,0.6978,0.6369
					C133.1421,38.9221,132.9065,39.2734,132.5685,39.3142z"/>
			</g>
		</g>
	</g>
</g>
</svg>
